<?xml version="1.0" encoding="UTF-8"?>
<svg width="181px" height="178px" viewBox="0 0 181 178" version="1.1" xmlns="http://www.w3.org/2000/svg" xmlns:xlink="http://www.w3.org/1999/xlink">
    <title>Johannes Fog</title>
    <g id="Page-1" stroke="none" stroke-width="1" fill="none" fill-rule="evenodd">
        <g id="fog-logo1-(1)" transform="translate(0.070000, 0.140000)" fill-rule="nonzero">
            <rect id="Rectangle" fill="#003D76" x="0" y="0" width="180.09" height="177.71"></rect>
            <polygon id="Path" fill="#FFFFFF" points="42.62 111.91 51.51 111.91 51.51 83.05 64.28 83.05 64.28 74.9 51.51 74.9 51.51 53.49 65.83 53.49 65.83 45.43 42.62 45.43"></polygon>
            <path d="M86.98,58.59 C78.09,58.59 72.72,63.78 72.72,72.86 L72.72,98.45 C72.72,107.52 78.09,112.72 86.98,112.72 C95.87,112.72 101.24,107.52 101.24,98.45 L101.24,72.86 C101.24,63.78 95.86,58.59 86.98,58.59 M92.46,97.94 C92.46,102.63 90.28,104.87 86.98,104.87 C83.68,104.87 81.5,102.63 81.5,97.94 L81.5,73.37 C81.5,68.68 83.67,66.44 86.98,66.44 C90.29,66.44 92.46,68.68 92.46,73.37 L92.46,97.94 Z" id="Shape" fill="#FFFFFF"></path>
            <path d="M129.73,62.86 C128.73,60.21 125.19,58.58 121.98,58.58 C113.61,58.58 109.69,63.67 109.69,72.85 L109.69,98.44 C109.69,107.61 113.61,112.71 121.98,112.71 C124.98,112.71 128.49,110.98 129.42,108.63 L129.42,116.99 C129.42,121.68 127.36,123.93 124.05,123.93 C120.74,123.93 118.68,121.68 118.68,116.99 L118.68,116.08 L109.93,116.08 L109.93,117.5 C109.93,126.58 115.2,131.78 124.08,131.78 C132.96,131.78 138.23,126.58 138.23,117.5 L138.23,59.4 L129.73,59.4 L129.73,62.86 Z M129.42,97.93 C129.42,102.62 127.25,104.86 123.95,104.86 C120.65,104.86 118.47,102.62 118.47,97.93 L118.47,73.37 C118.47,68.68 120.64,66.44 123.95,66.44 C127.26,66.44 129.42,68.68 129.42,73.37 L129.42,97.93 Z" id="Shape" fill="#FFFFFF"></path>
            <path d="M149.93,64.86 C149.828088,64.5608623 149.65674,64.2901324 149.43,64.07 C149.248934,63.9006047 149.034298,63.7711416 148.8,63.69 C149.175185,63.6189491 149.522188,63.4419775 149.8,63.18 C150.042242,62.9042453 150.170892,62.5468831 150.16,62.18 C150.165427,61.925268 150.114192,61.672512 150.01,61.44 C149.90818,61.2302145 149.752992,61.0508868 149.56,60.92 C149.333498,60.7739249 149.082987,60.6689813 148.82,60.61 C148.490071,60.5498483 148.155368,60.519725 147.82,60.52 L146.2,60.52 C146.029451,60.5085557 145.862118,60.5703963 145.74,60.69 C145.628685,60.8244546 145.571621,60.9956473 145.58,61.17 L145.58,66.17 C145.579381,66.2650548 145.639883,66.3497567 145.73,66.38 C145.918821,66.4099374 146.111179,66.4099374 146.3,66.38 C146.485456,66.4100603 146.674544,66.4100603 146.86,66.38 C146.940343,66.3423748 146.988374,66.2583202 146.98,66.17 L146.98,64.17 L147.36,64.17 C147.606833,64.148897 147.852713,64.2201666 148.05,64.37 C148.247917,64.5655763 148.389538,64.810823 148.46,65.08 L148.75,66.08 C148.762017,66.1424697 148.789524,66.2009229 148.83,66.25 C148.860244,66.3017972 148.911194,66.3381898 148.97,66.35 L150.25,66.35 C150.31,66.35 150.35,66.35 150.36,66.28 C150.369774,66.2439846 150.369774,66.2060154 150.36,66.17 C150.342098,66.0332765 150.308544,65.8990629 150.26,65.77 L149.93,64.86 Z M148.4,62.86 C148.166926,63.0318693 147.877996,63.1103443 147.59,63.08 L146.93,63.08 L146.93,61.58 L147.58,61.58 C147.741838,61.5805056 147.903017,61.600653 148.06,61.64 C148.178793,61.6584446 148.28983,61.7104928 148.38,61.79 C148.45694,61.8556272 148.512632,61.9426467 148.54,62.04 C148.555164,62.1360719 148.555164,62.2339281 148.54,62.33 C148.547366,62.5469125 148.464021,62.7570857 148.31,62.91" id="Shape" fill="#FFFFFF"></path>
            <path d="M152.87,61.4 C152.340547,60.1096987 151.30763,59.0912285 150.01,58.58 C149.305538,58.3071091 148.555421,58.1713412 147.8,58.18 C147.055922,58.1741773 146.31817,58.316968 145.63,58.6 C144.310292,59.119751 143.257035,60.1513655 142.71,61.46 C142.418489,62.1283478 142.271936,62.8508893 142.28,63.58 C142.270721,64.3201842 142.410143,65.0546981 142.69,65.74 C142.945755,66.3783443 143.330437,66.9570698 143.82,67.44 C144.315778,67.9279712 144.903922,68.3121346 145.55,68.57 C146.251199,68.842112 146.997895,68.9778749 147.75,68.97 C148.490916,68.9766547 149.225563,68.8338067 149.91,68.55 C150.566103,68.2852148 151.164016,67.8945329 151.67,67.4 C152.699127,66.3838845 153.275818,64.9962223 153.27,63.55 C153.278735,62.8140551 153.142829,62.0835608 152.87,61.4 M151.71,65.28 C151.511177,65.777303 151.219291,66.2321019 150.85,66.62 C150.469032,67.0128134 150.013458,67.3255957 149.51,67.54 C148.40712,67.970126 147.18288,67.970126 146.08,67.54 C145.576064,67.3402007 145.119588,67.037019 144.74,66.65 C144.360426,66.2510471 144.061605,65.7824403 143.86,65.27 C143.647448,64.7009511 143.542336,64.0974011 143.55,63.49 C143.548821,62.9295831 143.650505,62.3737083 143.85,61.85 C144.041583,61.3430922 144.334169,60.8803985 144.71,60.49 C145.09136,60.1001594 145.547005,59.7907292 146.05,59.58 C146.604662,59.3515955 147.200247,59.239285 147.8,59.25 C148.373349,59.2497038 148.942189,59.3512825 149.48,59.55 C150.513652,59.9677315 151.318392,60.8088844 151.69,61.86 C151.910701,62.4305597 152.01935,63.0383137 152.01,63.65 C152.010164,64.2135769 151.908533,64.7725498 151.71,65.3" id="Shape" fill="#FFFFFF"></path>
        </g>
    </g>
</svg>